# Blender 4.4.3
# www.blender.org
mtllib cableholder.mtl
o WireHolders
v 0.431290 1.675603 -1.019663
v 0.431290 0.417990 -1.019663
v 0.431290 1.675603 -1.146197
v 0.431290 0.417990 -1.146197
v 0.664935 1.675603 -1.019663
v 0.664935 0.417990 -1.019663
v 0.664935 1.675603 -1.146197
v 0.664935 0.417990 -1.146197
v 0.454849 1.485325 -0.767485
v 0.454849 1.507405 -0.767485
v 0.454849 1.450262 -1.069885
v 0.454849 1.507405 -1.069885
v 0.641376 1.485325 -0.767485
v 0.641376 1.507405 -0.767485
v 0.641376 1.450262 -1.069885
v 0.641376 1.507405 -1.069885
v 0.454849 1.067396 -0.767485
v 0.454849 1.089476 -0.767485
v 0.454849 1.032332 -1.069885
v 0.454849 1.089476 -1.069885
v 0.641376 1.067396 -0.767485
v 0.641376 1.089476 -0.767485
v 0.641376 1.032332 -1.069885
v 0.641376 1.089476 -1.069885
v 0.454849 0.659972 -0.767485
v 0.454849 0.682052 -0.767485
v 0.454849 0.624908 -1.069885
v 0.454849 0.682052 -1.069885
v 0.641376 0.659972 -0.767485
v 0.641376 0.682052 -0.767485
v 0.641376 0.624908 -1.069885
v 0.641376 0.682052 -1.069885
v -2.879949 1.675603 -1.019663
v -2.879949 0.417990 -1.019663
v -2.879949 1.675603 -1.146197
v -2.879949 0.417990 -1.146197
v -2.646304 1.675603 -1.019663
v -2.646304 0.417990 -1.019663
v -2.646304 1.675603 -1.146197
v -2.646304 0.417990 -1.146197
v -2.856390 1.485325 -0.767485
v -2.856390 1.507406 -0.767485
v -2.856390 1.450262 -1.069885
v -2.856390 1.507406 -1.069885
v -2.669863 1.485325 -0.767485
v -2.669863 1.507406 -0.767485
v -2.669863 1.450262 -1.069885
v -2.669863 1.507406 -1.069885
v -2.856390 1.067396 -0.767485
v -2.856390 1.089476 -0.767485
v -2.856390 1.032332 -1.069885
v -2.856390 1.089476 -1.069885
v -2.669863 1.067396 -0.767485
v -2.669863 1.089476 -0.767485
v -2.669863 1.032332 -1.069885
v -2.669863 1.089476 -1.069885
v -2.856390 0.659972 -0.767485
v -2.856390 0.682052 -0.767485
v -2.856390 0.624908 -1.069885
v -2.856390 0.682052 -1.069885
v -2.669863 0.659972 -0.767485
v -2.669863 0.682052 -0.767485
v -2.669863 0.624908 -1.069885
v -2.669863 0.682052 -1.069885
v -5.608969 1.666235 -1.019663
v -5.608969 0.408622 -1.019663
v -5.608969 1.666235 -1.146197
v -5.608969 0.408622 -1.146197
v -5.375323 1.666235 -1.019663
v -5.375323 0.408622 -1.019663
v -5.375323 1.666235 -1.146197
v -5.375323 0.408622 -1.146197
v -5.585410 1.475958 -0.767485
v -5.585410 1.498037 -0.767485
v -5.585410 1.440894 -1.069885
v -5.585410 1.498037 -1.069885
v -5.398883 1.475958 -0.767485
v -5.398883 1.498037 -0.767485
v -5.398883 1.440894 -1.069885
v -5.398883 1.498037 -1.069885
v -5.585410 1.058028 -0.767485
v -5.585410 1.080108 -0.767485
v -5.585410 1.022964 -1.069885
v -5.585410 1.080108 -1.069885
v -5.398883 1.058028 -0.767485
v -5.398883 1.080108 -0.767485
v -5.398883 1.022964 -1.069885
v -5.398883 1.080108 -1.069885
v -5.585410 0.650604 -0.767485
v -5.585410 0.672684 -0.767485
v -5.585410 0.615540 -1.069885
v -5.585410 0.672684 -1.069885
v -5.398883 0.650604 -0.767485
v -5.398883 0.672684 -0.767485
v -5.398883 0.615540 -1.069885
v -5.398883 0.672684 -1.069885
v -8.618110 1.666235 -1.019663
v -8.618110 0.408622 -1.019663
v -8.618110 1.666235 -1.146197
v -8.618110 0.408622 -1.146197
v -8.384464 1.666235 -1.019663
v -8.384464 0.408622 -1.019663
v -8.384464 1.666235 -1.146197
v -8.384464 0.408622 -1.146197
v -8.594551 1.475958 -0.767485
v -8.594551 1.498037 -0.767485
v -8.594551 1.440894 -1.069885
v -8.594551 1.498037 -1.069885
v -8.408023 1.475958 -0.767485
v -8.408023 1.498037 -0.767485
v -8.408023 1.440894 -1.069885
v -8.408023 1.498037 -1.069885
v -8.594551 1.058028 -0.767485
v -8.594551 1.080108 -0.767485
v -8.594551 1.022964 -1.069885
v -8.594551 1.080108 -1.069885
v -8.408023 1.058028 -0.767485
v -8.408023 1.080108 -0.767485
v -8.408023 1.022964 -1.069885
v -8.408023 1.080108 -1.069885
v -8.594551 0.650604 -0.767485
v -8.594551 0.672684 -0.767485
v -8.594551 0.615540 -1.069885
v -8.594551 0.672684 -1.069885
v -8.408023 0.650604 -0.767485
v -8.408023 0.672684 -0.767485
v -8.408023 0.615540 -1.069885
v -8.408023 0.672684 -1.069885
v -11.241681 1.666235 -1.019663
v -11.241681 0.408622 -1.019663
v -11.241681 1.666235 -1.146197
v -11.241681 0.408622 -1.146197
v -11.008036 1.666235 -1.019663
v -11.008036 0.408622 -1.019663
v -11.008036 1.666235 -1.146197
v -11.008036 0.408622 -1.146197
v -11.218122 1.475958 -0.767485
v -11.218122 1.498037 -0.767485
v -11.218122 1.440894 -1.069885
v -11.218122 1.498037 -1.069885
v -11.031594 1.475958 -0.767485
v -11.031594 1.498037 -0.767485
v -11.031594 1.440894 -1.069885
v -11.031594 1.498037 -1.069885
v -11.218122 1.058028 -0.767485
v -11.218122 1.080108 -0.767485
v -11.218122 1.022964 -1.069885
v -11.218122 1.080108 -1.069885
v -11.031594 1.058028 -0.767485
v -11.031594 1.080108 -0.767485
v -11.031594 1.022964 -1.069885
v -11.031594 1.080108 -1.069885
v -11.218122 0.650604 -0.767485
v -11.218122 0.672684 -0.767485
v -11.218122 0.615540 -1.069885
v -11.218122 0.672684 -1.069885
v -11.031594 0.650604 -0.767485
v -11.031594 0.672684 -0.767485
v -11.031594 0.615540 -1.069885
v -11.031594 0.672684 -1.069885
v -14.449811 1.654416 -1.019663
v -14.449811 0.396802 -1.019663
v -14.449811 1.654416 -1.146197
v -14.449811 0.396802 -1.146197
v -14.216165 1.654416 -1.019663
v -14.216165 0.396802 -1.019663
v -14.216165 1.654416 -1.146197
v -14.216165 0.396802 -1.146197
v -14.426250 1.464138 -0.767485
v -14.426250 1.486218 -0.767485
v -14.426250 1.429075 -1.069885
v -14.426250 1.486218 -1.069885
v -14.239723 1.464138 -0.767485
v -14.239723 1.486218 -0.767485
v -14.239723 1.429075 -1.069885
v -14.239723 1.486218 -1.069885
v -14.426250 1.046208 -0.767485
v -14.426250 1.068288 -0.767485
v -14.426250 1.011145 -1.069885
v -14.426250 1.068288 -1.069885
v -14.239723 1.046208 -0.767485
v -14.239723 1.068288 -0.767485
v -14.239723 1.011145 -1.069885
v -14.239723 1.068288 -1.069885
v -14.426250 0.638784 -0.767485
v -14.426250 0.660864 -0.767485
v -14.426250 0.603721 -1.069885
v -14.426250 0.660864 -1.069885
v -14.239723 0.638784 -0.767485
v -14.239723 0.660864 -0.767485
v -14.239723 0.603721 -1.069885
v -14.239723 0.660864 -1.069885
v -17.400488 1.654416 -1.019663
v -17.400488 0.396802 -1.019663
v -17.400488 1.654416 -1.146197
v -17.400488 0.396802 -1.146197
v -17.166843 1.654416 -1.019663
v -17.166843 0.396802 -1.019663
v -17.166843 1.654416 -1.146197
v -17.166843 0.396802 -1.146197
v -17.376930 1.464138 -0.767485
v -17.376930 1.486218 -0.767485
v -17.376930 1.429075 -1.069885
v -17.376930 1.486218 -1.069885
v -17.190403 1.464138 -0.767485
v -17.190403 1.486218 -0.767485
v -17.190403 1.429075 -1.069885
v -17.190403 1.486218 -1.069885
v -17.376930 1.046208 -0.767485
v -17.376930 1.068288 -0.767485
v -17.376930 1.011145 -1.069885
v -17.376930 1.068288 -1.069885
v -17.190403 1.046208 -0.767485
v -17.190403 1.068288 -0.767485
v -17.190403 1.011145 -1.069885
v -17.190403 1.068288 -1.069885
v -17.376930 0.638784 -0.767485
v -17.376930 0.660864 -0.767485
v -17.376930 0.603721 -1.069885
v -17.376930 0.660864 -1.069885
v -17.190403 0.638784 -0.767485
v -17.190403 0.660864 -0.767485
v -17.190403 0.603721 -1.069885
v -17.190403 0.660864 -1.069885
vn -1.0000 -0.0000 -0.0000
vn -0.0000 -0.0000 -1.0000
vn 1.0000 -0.0000 -0.0000
vn -0.0000 -0.0000 1.0000
vn -0.0000 1.0000 -0.0000
vn -0.0000 -1.0000 -0.0000
vn -0.0000 -0.9933 0.1152
vt 0.000100 1.589262
vt 0.499900 -1.089262
vt 0.499900 1.589262
vt 0.625000 0.250000
vt 0.375000 0.500000
vt 0.375000 0.250000
vt 0.500100 -1.089262
vt 0.999900 1.589262
vt 0.500100 1.589262
vt -0.347209 0.755402
vt 1.354874 0.244598
vt 1.354874 0.755402
vt 0.125000 0.750000
vt 0.125000 0.500000
vt 0.875000 0.500000
vt 0.625000 0.750000
vt 0.625000 0.500000
vt 0.375000 0.000000
vt 0.625000 0.000000
vt 0.557098 0.829975
vt 0.807098 0.579975
vt 0.557098 0.579975
vt 0.022020 0.999970
vt 0.000030 0.000030
vt 0.022020 0.000030
vt 0.453745 0.529760
vt 0.703745 0.279760
vt 0.453745 0.279760
vt 0.255781 0.999985
vt 0.233789 0.000015
vt 0.255781 0.000015
vt 0.250961 0.601123
vt 0.500961 0.351123
vt 0.250961 0.351123
vt 0.375000 0.750000
vt 0.044071 0.999970
vt 0.022080 0.000030
vt 0.044070 0.000030
vt 0.557328 0.474392
vt 0.807328 0.224392
vt 0.557328 0.224392
vt 0.000100 -1.089262
vt 0.999900 -1.089262
vt -0.347209 0.244598
vt 0.875000 0.750000
vt 0.807098 0.829975
vt 0.000030 0.999970
vt 0.703745 0.529760
vt 0.233789 0.999985
vt 0.500961 0.601123
vt 0.022080 0.999970
vt 0.807328 0.474392
s 0
usemtl Iron
f 2/1/1 1/3/1 3/2/1
f 4/4/2 3/6/2 7/5/2
f 8/7/3 7/9/3 5/8/3
f 6/10/4 5/12/4 1/11/4
f 7/5/5 3/14/5 1/13/5
f 4/15/6 8/17/6 6/16/6
f 9/18/1 10/19/1 12/4/1
f 15/5/2 11/6/2 12/4/2
f 13/20/3 15/22/3 16/21/3
f 9/23/4 13/25/4 14/24/4
f 9/13/7 11/14/7 15/5/7
f 14/16/5 16/17/5 12/15/5
f 17/18/1 18/19/1 20/4/1
f 21/26/3 23/28/3 24/27/3
f 17/29/4 21/31/4 22/30/4
f 17/13/7 19/14/7 23/5/7
f 22/32/5 24/34/5 20/33/5
f 25/18/1 26/19/1 28/4/1
f 29/35/3 31/5/3 32/17/3
f 25/36/4 29/38/4 30/37/4
f 25/13/7 27/14/7 31/5/7
f 30/39/5 32/41/5 28/40/5
f 2/1/1 3/2/1 4/42/1
f 4/4/2 7/5/2 8/17/2
f 8/7/3 5/8/3 6/43/3
f 6/10/4 1/11/4 2/44/4
f 7/5/5 1/13/5 5/35/5
f 4/15/6 6/16/6 2/45/6
f 9/18/1 12/4/1 11/6/1
f 15/5/2 12/4/2 16/17/2
f 13/20/3 16/21/3 14/46/3
f 9/23/4 14/24/4 10/47/4
f 9/13/7 15/5/7 13/35/7
f 14/16/5 12/15/5 10/45/5
f 17/18/1 20/4/1 19/6/1
f 21/26/3 24/27/3 22/48/3
f 17/29/4 22/30/4 18/49/4
f 17/13/7 23/5/7 21/35/7
f 22/32/5 20/33/5 18/50/5
f 25/18/1 28/4/1 27/6/1
f 29/35/3 32/17/3 30/16/3
f 25/36/4 30/37/4 26/51/4
f 25/13/7 31/5/7 29/35/7
f 30/39/5 28/40/5 26/52/5
usemtl Iron.001
f 34/1/1 33/3/1 35/2/1
f 36/4/2 35/6/2 39/5/2
f 40/7/3 39/9/3 37/8/3
f 38/10/4 37/12/4 33/11/4
f 39/5/5 35/14/5 33/13/5
f 36/15/6 40/17/6 38/16/6
f 41/18/1 42/19/1 44/4/1
f 47/5/2 43/6/2 44/4/2
f 45/20/3 47/22/3 48/21/3
f 41/23/4 45/25/4 46/24/4
f 41/13/7 43/14/7 47/5/7
f 46/16/5 48/17/5 44/15/5
f 49/18/1 50/19/1 52/4/1
f 53/26/3 55/28/3 56/27/3
f 49/29/4 53/31/4 54/30/4
f 49/13/7 51/14/7 55/5/7
f 54/32/5 56/34/5 52/33/5
f 57/18/1 58/19/1 60/4/1
f 61/35/3 63/5/3 64/17/3
f 57/36/4 61/38/4 62/37/4
f 57/13/7 59/14/7 63/5/7
f 62/39/5 64/41/5 60/40/5
f 34/1/1 35/2/1 36/42/1
f 36/4/2 39/5/2 40/17/2
f 40/7/3 37/8/3 38/43/3
f 38/10/4 33/11/4 34/44/4
f 39/5/5 33/13/5 37/35/5
f 36/15/6 38/16/6 34/45/6
f 41/18/1 44/4/1 43/6/1
f 47/5/2 44/4/2 48/17/2
f 45/20/3 48/21/3 46/46/3
f 41/23/4 46/24/4 42/47/4
f 41/13/7 47/5/7 45/35/7
f 46/16/5 44/15/5 42/45/5
f 49/18/1 52/4/1 51/6/1
f 53/26/3 56/27/3 54/48/3
f 49/29/4 54/30/4 50/49/4
f 49/13/7 55/5/7 53/35/7
f 54/32/5 52/33/5 50/50/5
f 57/18/1 60/4/1 59/6/1
f 61/35/3 64/17/3 62/16/3
f 57/36/4 62/37/4 58/51/4
f 57/13/7 63/5/7 61/35/7
f 62/39/5 60/40/5 58/52/5
usemtl Iron.002
f 66/1/1 65/3/1 67/2/1
f 68/4/2 67/6/2 71/5/2
f 72/7/3 71/9/3 69/8/3
f 70/10/4 69/12/4 65/11/4
f 71/5/5 67/14/5 65/13/5
f 68/15/6 72/17/6 70/16/6
f 73/18/1 74/19/1 76/4/1
f 79/5/2 75/6/2 76/4/2
f 77/20/3 79/22/3 80/21/3
f 73/23/4 77/25/4 78/24/4
f 73/13/7 75/14/7 79/5/7
f 78/16/5 80/17/5 76/15/5
f 81/18/1 82/19/1 84/4/1
f 85/26/3 87/28/3 88/27/3
f 81/29/4 85/31/4 86/30/4
f 81/13/7 83/14/7 87/5/7
f 86/32/5 88/34/5 84/33/5
f 89/18/1 90/19/1 92/4/1
f 93/35/3 95/5/3 96/17/3
f 89/36/4 93/38/4 94/37/4
f 89/13/7 91/14/7 95/5/7
f 94/39/5 96/41/5 92/40/5
f 66/1/1 67/2/1 68/42/1
f 68/4/2 71/5/2 72/17/2
f 72/7/3 69/8/3 70/43/3
f 70/10/4 65/11/4 66/44/4
f 71/5/5 65/13/5 69/35/5
f 68/15/6 70/16/6 66/45/6
f 73/18/1 76/4/1 75/6/1
f 79/5/2 76/4/2 80/17/2
f 77/20/3 80/21/3 78/46/3
f 73/23/4 78/24/4 74/47/4
f 73/13/7 79/5/7 77/35/7
f 78/16/5 76/15/5 74/45/5
f 81/18/1 84/4/1 83/6/1
f 85/26/3 88/27/3 86/48/3
f 81/29/4 86/30/4 82/49/4
f 81/13/7 87/5/7 85/35/7
f 86/32/5 84/33/5 82/50/5
f 89/18/1 92/4/1 91/6/1
f 93/35/3 96/17/3 94/16/3
f 89/36/4 94/37/4 90/51/4
f 89/13/7 95/5/7 93/35/7
f 94/39/5 92/40/5 90/52/5
usemtl Iron.003
f 98/1/1 97/3/1 99/2/1
f 100/4/2 99/6/2 103/5/2
f 104/7/3 103/9/3 101/8/3
f 102/10/4 101/12/4 97/11/4
f 103/5/5 99/14/5 97/13/5
f 100/15/6 104/17/6 102/16/6
f 105/18/1 106/19/1 108/4/1
f 111/5/2 107/6/2 108/4/2
f 109/20/3 111/22/3 112/21/3
f 105/23/4 109/25/4 110/24/4
f 105/13/7 107/14/7 111/5/7
f 110/16/5 112/17/5 108/15/5
f 113/18/1 114/19/1 116/4/1
f 117/26/3 119/28/3 120/27/3
f 113/29/4 117/31/4 118/30/4
f 113/13/7 115/14/7 119/5/7
f 118/32/5 120/34/5 116/33/5
f 121/18/1 122/19/1 124/4/1
f 125/35/3 127/5/3 128/17/3
f 121/36/4 125/38/4 126/37/4
f 121/13/7 123/14/7 127/5/7
f 126/39/5 128/41/5 124/40/5
f 98/1/1 99/2/1 100/42/1
f 100/4/2 103/5/2 104/17/2
f 104/7/3 101/8/3 102/43/3
f 102/10/4 97/11/4 98/44/4
f 103/5/5 97/13/5 101/35/5
f 100/15/6 102/16/6 98/45/6
f 105/18/1 108/4/1 107/6/1
f 111/5/2 108/4/2 112/17/2
f 109/20/3 112/21/3 110/46/3
f 105/23/4 110/24/4 106/47/4
f 105/13/7 111/5/7 109/35/7
f 110/16/5 108/15/5 106/45/5
f 113/18/1 116/4/1 115/6/1
f 117/26/3 120/27/3 118/48/3
f 113/29/4 118/30/4 114/49/4
f 113/13/7 119/5/7 117/35/7
f 118/32/5 116/33/5 114/50/5
f 121/18/1 124/4/1 123/6/1
f 125/35/3 128/17/3 126/16/3
f 121/36/4 126/37/4 122/51/4
f 121/13/7 127/5/7 125/35/7
f 126/39/5 124/40/5 122/52/5
usemtl Iron.004
f 130/1/1 129/3/1 131/2/1
f 132/4/2 131/6/2 135/5/2
f 136/7/3 135/9/3 133/8/3
f 134/10/4 133/12/4 129/11/4
f 135/5/5 131/14/5 129/13/5
f 132/15/6 136/17/6 134/16/6
f 137/18/1 138/19/1 140/4/1
f 143/5/2 139/6/2 140/4/2
f 141/20/3 143/22/3 144/21/3
f 137/23/4 141/25/4 142/24/4
f 137/13/7 139/14/7 143/5/7
f 142/16/5 144/17/5 140/15/5
f 145/18/1 146/19/1 148/4/1
f 149/26/3 151/28/3 152/27/3
f 145/29/4 149/31/4 150/30/4
f 145/13/7 147/14/7 151/5/7
f 150/32/5 152/34/5 148/33/5
f 153/18/1 154/19/1 156/4/1
f 157/35/3 159/5/3 160/17/3
f 153/36/4 157/38/4 158/37/4
f 153/13/7 155/14/7 159/5/7
f 158/39/5 160/41/5 156/40/5
f 130/1/1 131/2/1 132/42/1
f 132/4/2 135/5/2 136/17/2
f 136/7/3 133/8/3 134/43/3
f 134/10/4 129/11/4 130/44/4
f 135/5/5 129/13/5 133/35/5
f 132/15/6 134/16/6 130/45/6
f 137/18/1 140/4/1 139/6/1
f 143/5/2 140/4/2 144/17/2
f 141/20/3 144/21/3 142/46/3
f 137/23/4 142/24/4 138/47/4
f 137/13/7 143/5/7 141/35/7
f 142/16/5 140/15/5 138/45/5
f 145/18/1 148/4/1 147/6/1
f 149/26/3 152/27/3 150/48/3
f 145/29/4 150/30/4 146/49/4
f 145/13/7 151/5/7 149/35/7
f 150/32/5 148/33/5 146/50/5
f 153/18/1 156/4/1 155/6/1
f 157/35/3 160/17/3 158/16/3
f 153/36/4 158/37/4 154/51/4
f 153/13/7 159/5/7 157/35/7
f 158/39/5 156/40/5 154/52/5
usemtl Iron.005
f 162/1/1 161/3/1 163/2/1
f 164/4/2 163/6/2 167/5/2
f 168/7/3 167/9/3 165/8/3
f 166/10/4 165/12/4 161/11/4
f 167/5/5 163/14/5 161/13/5
f 164/15/6 168/17/6 166/16/6
f 169/18/1 170/19/1 172/4/1
f 175/5/2 171/6/2 172/4/2
f 173/20/3 175/22/3 176/21/3
f 169/23/4 173/25/4 174/24/4
f 169/13/7 171/14/7 175/5/7
f 174/16/5 176/17/5 172/15/5
f 177/18/1 178/19/1 180/4/1
f 181/26/3 183/28/3 184/27/3
f 177/29/4 181/31/4 182/30/4
f 177/13/7 179/14/7 183/5/7
f 182/32/5 184/34/5 180/33/5
f 185/18/1 186/19/1 188/4/1
f 189/35/3 191/5/3 192/17/3
f 185/36/4 189/38/4 190/37/4
f 185/13/7 187/14/7 191/5/7
f 190/39/5 192/41/5 188/40/5
f 162/1/1 163/2/1 164/42/1
f 164/4/2 167/5/2 168/17/2
f 168/7/3 165/8/3 166/43/3
f 166/10/4 161/11/4 162/44/4
f 167/5/5 161/13/5 165/35/5
f 164/15/6 166/16/6 162/45/6
f 169/18/1 172/4/1 171/6/1
f 175/5/2 172/4/2 176/17/2
f 173/20/3 176/21/3 174/46/3
f 169/23/4 174/24/4 170/47/4
f 169/13/7 175/5/7 173/35/7
f 174/16/5 172/15/5 170/45/5
f 177/18/1 180/4/1 179/6/1
f 181/26/3 184/27/3 182/48/3
f 177/29/4 182/30/4 178/49/4
f 177/13/7 183/5/7 181/35/7
f 182/32/5 180/33/5 178/50/5
f 185/18/1 188/4/1 187/6/1
f 189/35/3 192/17/3 190/16/3
f 185/36/4 190/37/4 186/51/4
f 185/13/7 191/5/7 189/35/7
f 190/39/5 188/40/5 186/52/5
usemtl Iron.006
f 194/1/1 193/3/1 195/2/1
f 196/4/2 195/6/2 199/5/2
f 200/7/3 199/9/3 197/8/3
f 198/10/4 197/12/4 193/11/4
f 199/5/5 195/14/5 193/13/5
f 196/15/6 200/17/6 198/16/6
f 201/18/1 202/19/1 204/4/1
f 207/5/2 203/6/2 204/4/2
f 205/20/3 207/22/3 208/21/3
f 201/23/4 205/25/4 206/24/4
f 201/13/7 203/14/7 207/5/7
f 206/16/5 208/17/5 204/15/5
f 209/18/1 210/19/1 212/4/1
f 213/26/3 215/28/3 216/27/3
f 209/29/4 213/31/4 214/30/4
f 209/13/7 211/14/7 215/5/7
f 214/32/5 216/34/5 212/33/5
f 217/18/1 218/19/1 220/4/1
f 221/35/3 223/5/3 224/17/3
f 217/36/4 221/38/4 222/37/4
f 217/13/7 219/14/7 223/5/7
f 222/39/5 224/41/5 220/40/5
f 194/1/1 195/2/1 196/42/1
f 196/4/2 199/5/2 200/17/2
f 200/7/3 197/8/3 198/43/3
f 198/10/4 193/11/4 194/44/4
f 199/5/5 193/13/5 197/35/5
f 196/15/6 198/16/6 194/45/6
f 201/18/1 204/4/1 203/6/1
f 207/5/2 204/4/2 208/17/2
f 205/20/3 208/21/3 206/46/3
f 201/23/4 206/24/4 202/47/4
f 201/13/7 207/5/7 205/35/7
f 206/16/5 204/15/5 202/45/5
f 209/18/1 212/4/1 211/6/1
f 213/26/3 216/27/3 214/48/3
f 209/29/4 214/30/4 210/49/4
f 209/13/7 215/5/7 213/35/7
f 214/32/5 212/33/5 210/50/5
f 217/18/1 220/4/1 219/6/1
f 221/35/3 224/17/3 222/16/3
f 217/36/4 222/37/4 218/51/4
f 217/13/7 223/5/7 221/35/7
f 222/39/5 220/40/5 218/52/5
